# Blender v2.63 (sub 0) OBJ File: 'Arrow.blend'
# www.blender.org
mtllib arrowmat.mtl
o Cube
v 2.600000 2.600000 -0.200000
v 2.600000 -2.600000 -0.200000
v -2.600000 -2.600000 -0.200000
v -2.600000 2.600000 -0.200000
v 2.600000 2.600000 0.200000
v 2.600000 -2.600000 0.200000
v -2.600000 -2.600000 0.200000
v -2.600000 2.600000 0.200000
vn 1.000000 0.000000 0.000000
vn 0.000000 -1.000000 0.000000
vn -1.000000 0.000000 0.000000
vn 0.000000 1.000000 0.000000
vn 0.000000 0.000000 -1.000000
vn 0.000000 0.000000 1.000000
usemtl ArrowYellow
s off
f 2//1 1//1 5//1
f 2//1 5//1 6//1
f 6//2 7//2 3//2
f 6//2 3//2 2//2
f 7//3 8//3 4//3
f 7//3 4//3 3//3
f 1//4 4//4 8//4
f 1//4 8//4 5//4
f 1//5 2//5 3//5
f 1//5 3//5 4//5
f 8//6 7//6 6//6
f 8//6 6//6 5//6
o Cube.002_Cube.003
v 3.763376 3.999999 -0.200000
v 4.963376 3.999999 -0.200000
v 4.963376 -4.000001 -0.200000
v 3.763376 -4.000001 -0.200000
v 3.763376 3.999999 0.200000
v 4.963376 3.999999 0.200000
v 4.963376 -4.000001 0.200000
v 3.763376 -4.000001 0.200000
v 5.763376 3.999998 -0.200000
v 6.963376 3.999998 -0.200000
v 6.963376 -4.000002 -0.200000
v 5.763375 -4.000002 -0.200000
v 5.763376 3.999998 0.200000
v 6.963376 3.999998 0.200000
v 6.963376 -4.000002 0.200000
v 5.763375 -4.000002 0.200000
v 7.763376 3.999998 -0.200000
v 8.963376 3.999998 -0.200000
v 8.963375 -4.000002 -0.200000
v 7.763375 -4.000002 -0.200000
v 7.763376 3.999998 0.200000
v 8.963376 3.999998 0.200000
v 8.963375 -4.000002 0.200000
v 7.763375 -4.000002 0.200000
v 11.963375 -0.000002 -0.200000
v 11.963375 -0.000002 0.200000
v -7.763376 -4.000000 -0.200000
v -8.963376 -4.000000 -0.200000
v -8.963375 4.000000 -0.200000
v -7.763375 4.000000 -0.200000
v -7.763376 -4.000000 0.200000
v -8.963376 -4.000000 0.200000
v -8.963375 4.000000 0.200000
v -7.763375 4.000000 0.200000
v -11.963375 -0.000000 -0.200000
v -11.963375 -0.000000 0.200000
v -5.763376 -4.000000 -0.200000
v -6.963376 -4.000000 -0.200000
v -6.963376 4.000000 -0.200000
v -5.763375 4.000000 -0.200000
v -5.763376 -4.000000 0.200000
v -6.963376 -4.000000 0.200000
v -6.963376 4.000000 0.200000
v -5.763375 4.000000 0.200000
v -3.763376 -4.000001 -0.200000
v -4.963376 -4.000001 -0.200000
v -4.963376 3.999999 -0.200000
v -3.763375 3.999999 -0.200000
v -3.763376 -4.000001 0.200000
v -4.963376 -4.000001 0.200000
v -4.963376 3.999999 0.200000
v -3.763375 3.999999 0.200000
v -4.000000 3.763374 -0.200000
v -4.000000 4.963375 -0.200000
v 4.000000 4.963375 -0.200000
v 4.000000 3.763374 -0.200000
v -4.000000 3.763374 0.200000
v -4.000000 4.963375 0.200000
v 4.000000 4.963375 0.200000
v 4.000000 3.763374 0.200000
v -4.000000 5.763374 -0.200000
v -4.000000 6.963375 -0.200000
v 4.000000 6.963375 -0.200000
v 4.000000 5.763374 -0.200000
v -4.000000 5.763374 0.200000
v -4.000000 6.963375 0.200000
v 4.000000 6.963375 0.200000
v 4.000000 5.763374 0.200000
v -4.000000 7.763374 -0.200000
v -4.000000 8.963375 -0.200000
v 4.000000 8.963375 -0.200000
v 4.000000 7.763374 -0.200000
v -4.000000 7.763374 0.200000
v -4.000000 8.963375 0.200000
v 4.000000 8.963375 0.200000
v 4.000000 7.763374 0.200000
v 0.000000 11.963375 -0.200000
v 0.000000 11.963375 0.200000
v 4.000000 -7.763377 -0.200000
v 4.000000 -8.963377 -0.200000
v -4.000000 -8.963377 -0.200000
v -4.000000 -7.763377 -0.200000
v 4.000000 -7.763377 0.200000
v 4.000000 -8.963377 0.200000
v -4.000000 -8.963377 0.200000
v -4.000000 -7.763377 0.200000
v 0.000000 -11.963377 -0.200000
v 0.000000 -11.963377 0.200000
v 4.000000 -5.763377 -0.200000
v 4.000000 -6.963377 -0.200000
v -4.000000 -6.963377 -0.200000
v -4.000000 -5.763377 -0.200000
v 4.000000 -5.763377 0.200000
v 4.000000 -6.963377 0.200000
v -4.000000 -6.963377 0.200000
v -4.000000 -5.763377 0.200000
v 4.000000 -3.763377 -0.200000
v 4.000000 -4.963377 -0.200000
v -4.000000 -4.963377 -0.200000
v -4.000000 -3.763377 -0.200000
v 4.000000 -3.763377 0.200000
v 4.000000 -4.963377 0.200000
v -4.000000 -4.963377 0.200000
v -4.000000 -3.763377 0.200000
vn 0.800000 -0.600000 0.000000
vn 0.800000 0.600000 0.000000
vn -0.800000 0.600000 0.000000
vn -0.800000 -0.600000 0.000000
vn 0.600000 0.800000 0.000000
vn -0.600000 0.800000 0.000000
vn -0.600000 -0.800000 0.000000
vn 0.600000 -0.800000 0.000000
usemtl ArrowYellow
s off
f 10//4 9//4 13//4
f 10//4 13//4 14//4
f 14//1 15//1 11//1
f 14//1 11//1 10//1
f 15//2 16//2 12//2
f 15//2 12//2 11//2
f 9//3 12//3 16//3
f 9//3 16//3 13//3
f 9//5 10//5 11//5
f 9//5 11//5 12//5
f 16//6 15//6 14//6
f 16//6 14//6 13//6
usemtl ArrowOrange
f 21//4 22//4 18//4
f 21//4 18//4 17//4
f 22//1 23//1 19//1
f 22//1 19//1 18//1
f 23//2 24//2 20//2
f 23//2 20//2 19//2
f 24//3 21//3 17//3
f 24//3 17//3 20//3
f 17//5 18//5 19//5
f 17//5 19//5 20//5
f 24//6 23//6 22//6
f 24//6 22//6 21//6
usemtl ArrowRed
f 29//4 30//4 26//4
f 29//4 26//4 25//4
f 34//7 31//7 27//7
f 34//7 27//7 33//7
f 31//2 32//2 28//2
f 31//2 28//2 27//2
f 32//3 29//3 25//3
f 32//3 25//3 28//3
f 33//5 27//5 28//5
f 25//5 33//5 28//5
f 25//5 26//5 33//5
f 32//6 31//6 34//6
f 32//6 34//6 29//6
f 34//6 30//6 29//6
f 30//8 34//8 33//8
f 30//8 33//8 26//8
f 39//2 40//2 36//2
f 39//2 36//2 35//2
f 44//9 41//9 37//9
f 44//9 37//9 43//9
f 41//4 42//4 38//4
f 41//4 38//4 37//4
f 42//1 39//1 35//1
f 42//1 35//1 38//1
f 35//5 36//5 38//5
f 36//5 43//5 38//5
f 43//5 37//5 38//5
f 42//6 40//6 39//6
f 42//6 44//6 40//6
f 42//6 41//6 44//6
f 40//10 44//10 43//10
f 40//10 43//10 36//10
usemtl ArrowOrange
f 49//2 50//2 46//2
f 49//2 46//2 45//2
f 50//3 51//3 47//3
f 50//3 47//3 46//3
f 51//4 52//4 48//4
f 51//4 48//4 47//4
f 52//1 49//1 45//1
f 52//1 45//1 48//1
f 45//5 46//5 47//5
f 45//5 47//5 48//5
f 52//6 51//6 50//6
f 52//6 50//6 49//6
usemtl ArrowYellow
f 57//2 58//2 54//2
f 57//2 54//2 53//2
f 58//3 59//3 55//3
f 58//3 55//3 54//3
f 59//4 60//4 56//4
f 59//4 56//4 55//4
f 60//1 57//1 53//1
f 60//1 53//1 56//1
f 53//5 54//5 55//5
f 53//5 55//5 56//5
f 60//6 59//6 58//6
f 60//6 58//6 57//6
f 65//3 66//3 62//3
f 65//3 62//3 61//3
f 66//4 67//4 63//4
f 66//4 63//4 62//4
f 67//1 68//1 64//1
f 67//1 64//1 63//1
f 68//2 65//2 61//2
f 68//2 61//2 64//2
f 61//5 62//5 63//5
f 61//5 63//5 64//5
f 68//6 67//6 66//6
f 68//6 66//6 65//6
usemtl ArrowOrange
f 73//3 74//3 70//3
f 73//3 70//3 69//3
f 74//4 75//4 71//4
f 74//4 71//4 70//4
f 75//1 76//1 72//1
f 75//1 72//1 71//1
f 76//2 73//2 69//2
f 76//2 69//2 72//2
f 69//5 70//5 71//5
f 69//5 71//5 72//5
f 76//6 75//6 74//6
f 76//6 74//6 73//6
usemtl ArrowRed
f 81//3 82//3 78//3
f 81//3 78//3 77//3
f 86//11 83//11 79//11
f 86//11 79//11 85//11
f 83//1 84//1 80//1
f 83//1 80//1 79//1
f 84//2 81//2 77//2
f 84//2 77//2 80//2
f 77//5 79//5 80//5
f 77//5 78//5 79//5
f 78//5 85//5 79//5
f 84//6 83//6 81//6
f 83//6 82//6 81//6
f 83//6 86//6 82//6
f 82//12 86//12 85//12
f 82//12 85//12 78//12
f 91//1 92//1 88//1
f 91//1 88//1 87//1
f 96//13 93//13 89//13
f 96//13 89//13 95//13
f 93//3 94//3 90//3
f 93//3 90//3 89//3
f 94//4 91//4 87//4
f 94//4 87//4 90//4
f 88//5 95//5 89//5
f 87//5 88//5 89//5
f 87//5 89//5 90//5
f 93//6 96//6 92//6
f 93//6 92//6 91//6
f 94//6 93//6 91//6
f 92//14 96//14 95//14
f 92//14 95//14 88//14
usemtl ArrowOrange
f 101//1 102//1 98//1
f 101//1 98//1 97//1
f 102//2 103//2 99//2
f 102//2 99//2 98//2
f 103//3 104//3 100//3
f 103//3 100//3 99//3
f 104//4 101//4 97//4
f 104//4 97//4 100//4
f 97//5 98//5 99//5
f 97//5 99//5 100//5
f 104//6 103//6 102//6
f 104//6 102//6 101//6
usemtl ArrowYellow
f 109//1 110//1 106//1
f 109//1 106//1 105//1
f 110//2 111//2 107//2
f 110//2 107//2 106//2
f 111//3 112//3 108//3
f 111//3 108//3 107//3
f 112//4 109//4 105//4
f 112//4 105//4 108//4
f 105//5 106//5 107//5
f 105//5 107//5 108//5
f 112//6 111//6 110//6
f 112//6 110//6 109//6
