# Blender v2.63 (sub 0) OBJ File: ''
# www.blender.org
mtllib note.mtl
o Cube_Cube.001
v 3.091046 1.458407 0.262229
v 4.994329 1.458407 0.262229
v 4.994329 -1.458407 0.262229
v 3.091046 -1.458407 0.262229
v 3.091046 1.458407 23.262226
v 4.994329 1.458407 22.142420
v 4.994329 -1.458407 22.142420
v 3.091046 -1.458407 23.262226
v 4.994329 -1.458407 19.379255
v 4.994329 1.458407 19.379255
v 7.994329 1.458407 19.520933
v 7.994329 -1.458407 19.520933
v 7.994329 -1.458407 16.757769
v 7.994329 1.458407 16.757769
v 10.744311 1.458406 13.708001
v 10.744311 -1.458406 13.708001
v 9.972188 -1.458406 14.125407
v 9.972188 1.458406 14.125407
v 10.076661 1.458406 12.219195
v 10.076661 -1.458406 12.219195
v 10.014793 -1.458406 12.329018
v 10.014793 1.458406 12.329018
vn -0.000000 1.000000 0.000000
vn 1.000000 0.000000 -0.000000
vn 0.000000 -1.000000 0.000000
vn -1.000000 0.000000 -0.000000
vn 0.000000 0.000000 -1.000000
vn 0.507097 0.000000 0.861889
vn 0.658005 0.000000 0.753014
vn 0.903949 0.000000 0.427640
vn -0.658005 0.000000 -0.753014
vn -0.999719 0.000000 -0.023711
vn -0.799477 0.000000 -0.600697
vn -0.871261 0.000000 -0.490820
vn 0.912451 0.000000 -0.409186
usemtl NoteMat
s off
f 6//1 1//1 5//1
f 10//1 1//1 6//1
f 2//1 1//1 10//1
f 10//2 9//2 3//2
f 10//2 3//2 2//2
f 7//3 8//3 4//3
f 7//3 4//3 9//3
f 4//3 3//3 9//3
f 1//4 4//4 8//4
f 1//4 8//4 5//4
f 1//5 2//5 3//5
f 1//5 3//5 4//5
f 8//6 7//6 6//6
f 8//6 6//6 5//6
f 6//7 7//7 12//7
f 6//7 12//7 11//7
f 11//8 12//8 16//8
f 11//8 16//8 15//8
f 13//3 12//3 7//3
f 13//3 7//3 9//3
f 10//1 6//1 11//1
f 10//1 11//1 14//1
f 9//9 10//9 14//9
f 9//9 14//9 13//9
f 17//10 18//10 22//10
f 17//10 22//10 21//10
f 17//3 16//3 12//3
f 17//3 12//3 13//3
f 14//1 11//1 15//1
f 14//1 15//1 18//1
f 13//11 14//11 18//11
f 13//11 18//11 17//11
f 19//12 20//12 21//12
f 19//12 21//12 22//12
f 15//13 16//13 20//13
f 15//13 20//13 19//13
f 21//3 20//3 16//3
f 21//3 16//3 17//3
f 18//1 15//1 19//1
f 18//1 19//1 22//1
o Cylinder
v 5.000000 1.500000 -0.000000
v 5.000000 -1.500000 0.000000
v 4.903926 1.500000 -0.975452
v 4.903926 -1.500000 -0.975451
v 4.619398 1.500000 -1.913417
v 4.619398 -1.500000 -1.913417
v 4.157348 1.500000 -2.777851
v 4.157348 -1.500000 -2.777851
v 3.535534 1.500000 -3.535534
v 3.535534 -1.500000 -3.535534
v 2.777851 1.500000 -4.157348
v 2.777851 -1.500000 -4.157348
v 1.913417 1.500000 -4.619398
v 1.913417 -1.500000 -4.619398
v 0.975452 1.500000 -4.903926
v 0.975452 -1.500000 -4.903926
v 0.000000 1.500000 -5.000000
v 0.000000 -1.500000 -5.000000
v -0.975451 1.500000 -4.903926
v -0.975451 -1.500000 -4.903926
v -1.913416 1.500000 -4.619398
v -1.913416 -1.500000 -4.619398
v -2.777851 1.500000 -4.157348
v -2.777851 -1.500000 -4.157348
v -3.535534 1.500000 -3.535534
v -3.535534 -1.500000 -3.535534
v -4.157348 1.500000 -2.777851
v -4.157348 -1.500000 -2.777851
v -4.619398 1.500000 -1.913417
v -4.619398 -1.500000 -1.913416
v -4.903926 1.500000 -0.975451
v -4.903926 -1.500000 -0.975450
v -5.000000 1.500000 0.000002
v -5.000000 -1.500000 0.000002
v -4.903926 1.500000 0.975453
v -4.903926 -1.500000 0.975454
v -4.619397 1.500000 1.913419
v -4.619397 -1.500000 1.913419
v -4.157347 1.500000 2.777853
v -4.157347 -1.500000 2.777853
v -3.535532 1.500000 3.535536
v -3.535532 -1.500000 3.535536
v -2.777848 1.500000 4.157350
v -2.777848 -1.500000 4.157350
v -1.913413 1.500000 4.619399
v -1.913413 -1.500000 4.619399
v -0.975447 1.500000 4.903927
v -0.975447 -1.500000 4.903927
v 0.000005 1.500000 5.000000
v 0.000005 -1.500000 5.000000
v 0.975457 1.500000 4.903925
v 0.975457 -1.500000 4.903925
v 1.913422 1.500000 4.619395
v 1.913422 -1.500000 4.619395
v 2.777856 1.500000 4.157345
v 2.777856 -1.500000 4.157345
v 3.535538 1.500000 3.535529
v 3.535538 -1.500000 3.535529
v 4.157352 1.500000 2.777846
v 4.157352 -1.500000 2.777846
v 4.619401 1.500000 1.913410
v 4.619401 -1.500000 1.913411
v 4.903928 1.500000 0.975444
v 4.903928 -1.500000 0.975444
vn 0.995185 -0.000000 -0.098017
vn 0.956940 -0.000000 -0.290285
vn 0.881921 -0.000000 -0.471397
vn 0.773010 0.000000 -0.634393
vn 0.634393 0.000000 -0.773011
vn 0.471397 0.000000 -0.881921
vn 0.290285 0.000000 -0.956940
vn 0.098017 0.000000 -0.995185
vn -0.098017 0.000000 -0.995185
vn -0.290285 0.000000 -0.956940
vn -0.471396 0.000000 -0.881921
vn -0.634393 0.000000 -0.773011
vn -0.773011 0.000000 -0.634393
vn -0.881921 -0.000000 -0.471397
vn -0.956940 -0.000000 -0.290284
vn -0.995185 -0.000000 -0.098017
vn -0.995185 0.000000 0.098018
vn -0.956940 0.000000 0.290285
vn -0.881921 0.000000 0.471397
vn -0.773010 0.000000 0.634394
vn -0.634393 0.000000 0.773011
vn -0.471396 0.000000 0.881922
vn -0.290284 0.000000 0.956941
vn -0.098016 0.000000 0.995185
vn 0.098018 0.000000 0.995185
vn 0.290286 0.000000 0.956940
vn 0.471397 0.000000 0.881921
vn 0.634395 0.000000 0.773009
vn 0.773011 0.000000 0.634393
vn 0.881922 0.000000 0.471395
vn 0.995185 0.000000 0.098016
vn 0.956941 0.000000 0.290283
usemtl NoteMat
s off
f 23//14 24//14 26//14
f 23//14 26//14 25//14
f 25//15 26//15 28//15
f 25//15 28//15 27//15
f 27//16 28//16 30//16
f 27//16 30//16 29//16
f 29//17 30//17 32//17
f 29//17 32//17 31//17
f 31//18 32//18 34//18
f 31//18 34//18 33//18
f 33//19 34//19 36//19
f 33//19 36//19 35//19
f 35//20 36//20 38//20
f 35//20 38//20 37//20
f 37//21 38//21 40//21
f 37//21 40//21 39//21
f 39//22 40//22 42//22
f 39//22 42//22 41//22
f 41//23 42//23 44//23
f 41//23 44//23 43//23
f 43//24 44//24 46//24
f 43//24 46//24 45//24
f 45//25 46//25 48//25
f 45//25 48//25 47//25
f 47//26 48//26 50//26
f 47//26 50//26 49//26
f 49//27 50//27 52//27
f 49//27 52//27 51//27
f 51//28 52//28 54//28
f 51//28 54//28 53//28
f 53//29 54//29 56//29
f 53//29 56//29 55//29
f 55//30 56//30 58//30
f 55//30 58//30 57//30
f 57//31 58//31 60//31
f 57//31 60//31 59//31
f 59//32 60//32 62//32
f 59//32 62//32 61//32
f 61//33 62//33 64//33
f 61//33 64//33 63//33
f 63//34 64//34 66//34
f 63//34 66//34 65//34
f 65//35 66//35 68//35
f 65//35 68//35 67//35
f 67//36 68//36 70//36
f 67//36 70//36 69//36
f 69//37 70//37 72//37
f 69//37 72//37 71//37
f 71//38 72//38 74//38
f 71//38 74//38 73//38
f 73//39 74//39 76//39
f 73//39 76//39 75//39
f 75//40 76//40 78//40
f 75//40 78//40 77//40
f 77//41 78//41 80//41
f 77//41 80//41 79//41
f 79//42 80//42 82//42
f 79//42 82//42 81//42
f 81//43 82//43 84//43
f 81//43 84//43 83//43
f 26//3 24//3 86//3
f 26//3 86//3 84//3
f 26//3 84//3 28//3
f 84//3 82//3 28//3
f 82//3 30//3 28//3
f 82//3 80//3 30//3
f 80//3 32//3 30//3
f 80//3 78//3 32//3
f 78//3 34//3 32//3
f 78//3 76//3 34//3
f 76//3 36//3 34//3
f 76//3 74//3 36//3
f 74//3 38//3 36//3
f 74//3 72//3 38//3
f 72//3 40//3 38//3
f 72//3 70//3 40//3
f 70//3 42//3 40//3
f 70//3 68//3 42//3
f 68//3 44//3 42//3
f 68//3 66//3 44//3
f 66//3 46//3 44//3
f 66//3 64//3 46//3
f 64//3 48//3 46//3
f 64//3 62//3 48//3
f 62//3 50//3 48//3
f 62//3 60//3 50//3
f 60//3 52//3 50//3
f 60//3 58//3 52//3
f 58//3 54//3 52//3
f 58//3 56//3 54//3
f 24//44 23//44 85//44
f 24//44 85//44 86//44
f 83//45 84//45 86//45
f 83//45 86//45 85//45
f 23//1 25//1 85//1
f 25//1 83//1 85//1
f 25//1 27//1 83//1
f 27//1 81//1 83//1
f 27//1 29//1 81//1
f 29//1 79//1 81//1
f 29//1 31//1 79//1
f 31//1 77//1 79//1
f 31//1 33//1 77//1
f 33//1 75//1 77//1
f 33//1 35//1 75//1
f 35//1 73//1 75//1
f 35//1 37//1 73//1
f 37//1 71//1 73//1
f 37//1 39//1 71//1
f 39//1 69//1 71//1
f 39//1 41//1 69//1
f 41//1 67//1 69//1
f 41//1 43//1 67//1
f 43//1 65//1 67//1
f 43//1 45//1 65//1
f 45//1 63//1 65//1
f 45//1 47//1 63//1
f 47//1 61//1 63//1
f 47//1 49//1 61//1
f 49//1 59//1 61//1
f 49//1 51//1 59//1
f 51//1 57//1 59//1
f 51//1 53//1 57//1
f 53//1 55//1 57//1
