# Blender v2.63 (sub 0) OBJ File: ''
# www.blender.org
mtllib starmat.mtl
o Mesh_Circle
v -0.000010 -0.000000 -1.909825
v -2.938925 -0.000000 -4.045085
v -0.000000 1.301580 0.000000
v 1.816355 0.000000 -0.590160
v 4.755285 0.000001 1.545085
v 1.122570 0.000000 1.545085
v -4.755280 -0.000001 1.545085
v -1.122565 -0.000000 1.545090
v 2.938930 0.000000 -4.045085
v 0.000000 0.000000 5.000000
v -1.816355 -0.000000 -0.590180
v 0.000000 -1.301580 -0.000000
vn 0.378694 0.764797 -0.521225
vn 0.378691 0.764798 -0.521227
vn -0.000000 0.764800 0.644268
vn -0.000001 0.764801 0.644266
vn 0.612734 0.764800 0.199090
vn 0.612735 0.764800 0.199090
vn -0.378691 0.764802 -0.521221
vn -0.612736 0.764799 0.199089
vn -0.612736 0.764799 0.199091
vn -0.378690 0.764801 -0.521223
vn 0.378695 -0.764797 -0.521225
vn 0.612735 -0.764800 0.199090
vn 0.378691 -0.764797 -0.521227
vn -0.378691 -0.764802 -0.521221
vn 0.000000 -0.764800 0.644268
vn -0.000001 -0.764801 0.644266
vn -0.612736 -0.764799 0.199089
vn -0.612736 -0.764799 0.199091
vn -0.378690 -0.764801 -0.521223
usemtl StarMat
s off
f 1//1 2//1 3//1
f 4//2 3//2 5//2
f 5//3 3//3 6//3
f 3//4 7//4 8//4
f 4//5 9//5 3//5
f 6//6 3//6 10//6
f 11//7 7//7 3//7
f 10//8 3//8 8//8
f 3//9 2//9 11//9
f 9//10 1//10 3//10
f 1//11 12//11 2//11
f 4//12 12//12 9//12
f 6//12 10//12 12//12
f 4//13 5//13 12//13
f 11//14 12//14 7//14
f 5//15 6//15 12//15
f 12//16 8//16 7//16
f 10//17 8//17 12//17
f 12//18 11//18 2//18
f 12//19 1//19 9//19
